<svg width="159" height="33" viewBox="0 0 159 33" fill="none" xmlns="http://www.w3.org/2000/svg">
<g clip-path="url(#clip0_132_6158)">
<path fill-rule="evenodd" clip-rule="evenodd" d="M7.83027 32.8564C15.7915 30.7152 20.4946 22.1095 18.3539 13.501C16.2131 4.89386 8.0322 -0.49124 0 1.36673L7.83027 32.8578V32.8564Z" fill="#0810A6"/>
<path fill-rule="evenodd" clip-rule="evenodd" d="M32.1693 33C24.2081 30.8588 19.505 22.2531 21.6458 13.6446C23.7865 5.03608 31.9674 -0.347647 39.9996 1.50895L32.1693 33Z" fill="#0810A6"/>
</g>
<path d="M62.1548 6.45774H48V27.6339H51.6456V19.5544H62.1569C67.5409 19.5544 70.6284 17.1676 70.6284 13.0052C70.6284 8.84278 67.5409 6.45591 62.1569 6.45591L62.1548 6.45774ZM51.6456 9.2107H61.5475C65.1568 9.2107 66.9101 10.4517 66.9101 13.0052C66.9101 15.5586 65.1568 16.8015 61.5475 16.8015H51.6456V9.2107Z" fill="#0810A6"/>
<path d="M88.5462 14.9839L80.2821 6.45774H75.5781L86.6518 17.8759V27.6339H90.2974V17.8759L101.371 6.45774H96.8103L88.5462 14.9839Z" fill="#0810A6"/>
<path d="M118.122 15.4543C111.679 15.079 110.386 14.0284 110.386 12.4542C110.386 10.2687 112.885 8.96542 117.072 8.96542C120.467 8.96542 123.36 9.70491 125.667 11.1638L125.864 11.2882L127.502 8.72929L127.35 8.63411C124.648 6.94646 121.273 6.08982 117.322 6.08982C110.651 6.08982 106.67 8.50415 106.67 12.5457C106.67 16.5873 109.682 18.0754 117.414 18.5129C123.055 18.8424 125.15 19.6569 125.15 21.513C125.15 24.4984 121.068 25.1244 117.643 25.1244C113.828 25.1244 110.245 24.1378 107.548 22.3476L107.356 22.2195L105.601 24.7711L105.748 24.87C108.759 26.8889 112.969 28 117.604 28C124.866 28 128.864 25.6644 128.864 21.4215C128.864 17.5648 125.851 15.8917 118.12 15.4543H118.122Z" fill="#0810A6"/>
<path d="M153.426 0H149.241L145.491 4.31431H148.583L153.426 0Z" fill="#0810A6"/>
<path d="M159 9.2107V6.45774H137.375V27.6339H159V24.881H141.02V18.2988H156.676V15.5458H141.02V9.2107H159Z" fill="#0810A6"/>
<defs>
<clipPath id="clip0_132_6158">
<rect width="40" height="32" fill="white" transform="translate(0 1)"/>
</clipPath>
</defs>
</svg>
