<svg xmlns="http://www.w3.org/2000/svg" xmlns:xlink="http://www.w3.org/1999/xlink" width="1920" zoomAndPan="magnify" viewBox="0 0 1440 809.999993" height="1080" preserveAspectRatio="xMidYMid meet" version="1.0"><defs><g/><clipPath id="5c202a9cde"><path d="M 223.492188 249.578125 L 415 249.578125 L 415 573 L 223.492188 573 Z M 223.492188 249.578125 " clip-rule="nonzero"/></clipPath><clipPath id="851c4cc5ee"><path d="M 437 251 L 628.902344 251 L 628.902344 573.578125 L 437 573.578125 Z M 437 251 " clip-rule="nonzero"/></clipPath><clipPath id="95a8e075ac"><path d="M 223.492188 249.578125 L 415 249.578125 L 415 573 L 223.492188 573 Z M 223.492188 249.578125 " clip-rule="nonzero"/></clipPath><clipPath id="e6b74a7e79"><rect x="0" width="333" y="0" height="134"/></clipPath><clipPath id="054b3b8750"><rect x="0" width="68" y="0" height="342"/></clipPath><clipPath id="14a3ecbfe0"><rect x="0" width="544" y="0" height="271"/></clipPath></defs><g clip-path="url(#5c202a9cde)"><path fill="#c8a86b" d="M 302.855469 572.453125 C 383.542969 550.75 431.210938 463.53125 409.515625 376.28125 C 387.816406 289.042969 304.902344 234.464844 223.492188 253.296875 L 302.855469 572.464844 Z M 302.855469 572.453125 " fill-opacity="1" fill-rule="evenodd"/></g><g clip-path="url(#851c4cc5ee)"><path fill="#c8a86b" d="M 549.535156 573.90625 C 468.847656 552.207031 421.179688 464.984375 442.878906 377.734375 C 464.574219 290.484375 547.492188 235.921875 628.898438 254.738281 Z M 549.535156 573.90625 " fill-opacity="1" fill-rule="evenodd"/></g><g clip-path="url(#95a8e075ac)"><path fill="#d8c9ac" d="M 302.855469 572.453125 C 383.542969 550.75 431.210938 463.53125 409.515625 376.28125 C 387.816406 289.042969 304.902344 234.464844 223.492188 253.296875 L 302.855469 572.464844 Z M 302.855469 572.453125 " fill-opacity="1" fill-rule="evenodd"/></g><g transform="matrix(1, 0, 0, 1, 715, 459)"><g clip-path="url(#e6b74a7e79)"><g fill="#000000" fill-opacity="1"><g transform="translate(0.688583, 98.552626)"><g><path d="M 29.75 0.8125 C 25.832031 0.8125 22.359375 0.0859375 19.328125 -1.359375 C 16.304688 -2.804688 13.75 -4.804688 11.65625 -7.359375 C 9.570312 -9.921875 7.988281 -12.882812 6.90625 -16.25 C 5.820312 -19.625 5.28125 -23.234375 5.28125 -27.078125 C 5.28125 -30.628906 5.785156 -34.082031 6.796875 -37.4375 C 7.804688 -40.789062 9.316406 -43.796875 11.328125 -46.453125 C 13.347656 -49.117188 15.890625 -51.238281 18.953125 -52.8125 C 22.015625 -54.394531 25.578125 -55.1875 29.640625 -55.1875 C 34.597656 -55.1875 38.976562 -53.914062 42.78125 -51.375 C 46.59375 -48.84375 49.5 -45.128906 51.5 -40.234375 L 44.640625 -37.578125 C 43.367188 -40.984375 41.421875 -43.671875 38.796875 -45.640625 C 36.171875 -47.617188 33.117188 -48.609375 29.640625 -48.609375 C 26.703125 -48.609375 24.160156 -48.007812 22.015625 -46.8125 C 19.878906 -45.613281 18.113281 -44 16.71875 -41.96875 C 15.320312 -39.945312 14.28125 -37.648438 13.59375 -35.078125 C 12.90625 -32.503906 12.5625 -29.835938 12.5625 -27.078125 C 12.5625 -24.285156 12.90625 -21.609375 13.59375 -19.046875 C 14.28125 -16.492188 15.320312 -14.210938 16.71875 -12.203125 C 18.113281 -10.191406 19.890625 -8.601562 22.046875 -7.4375 C 24.203125 -6.28125 26.75 -5.703125 29.6875 -5.703125 C 33.238281 -5.703125 36.300781 -6.679688 38.875 -8.640625 C 41.445312 -10.597656 43.28125 -13.265625 44.375 -16.640625 L 50.953125 -14.140625 C 49.285156 -9.421875 46.582031 -5.75 42.84375 -3.125 C 39.113281 -0.5 34.75 0.8125 29.75 0.8125 Z M 29.75 0.8125 "/></g></g></g><g fill="#000000" fill-opacity="1"><g transform="translate(55.498081, 98.552626)"><g><path d="M 27.890625 -55.1875 C 32.535156 -55.1875 36.46875 -54.296875 39.6875 -52.515625 C 42.914062 -50.742188 45.363281 -48.21875 47.03125 -44.9375 C 48.695312 -41.65625 49.53125 -37.734375 49.53125 -33.171875 L 49.53125 0 L 43.546875 0 L 43.0625 -11.03125 C 41.71875 -8.425781 40.015625 -6.242188 37.953125 -4.484375 C 35.890625 -2.722656 33.613281 -1.398438 31.125 -0.515625 C 28.644531 0.367188 26.046875 0.8125 23.328125 0.8125 C 19.660156 0.8125 16.414062 0.160156 13.59375 -1.140625 C 10.769531 -2.441406 8.554688 -4.332031 6.953125 -6.8125 C 5.359375 -9.300781 4.5625 -12.285156 4.5625 -15.765625 C 4.5625 -19.460938 5.484375 -22.441406 7.328125 -24.703125 C 9.179688 -26.972656 11.8125 -28.632812 15.21875 -29.6875 C 18.632812 -30.738281 22.675781 -31.265625 27.34375 -31.265625 L 43.015625 -31.265625 L 43.015625 -31.921875 C 43.015625 -37.648438 41.863281 -41.898438 39.5625 -44.671875 C 37.257812 -47.441406 33.390625 -48.828125 27.953125 -48.828125 C 24.328125 -48.828125 21.257812 -48.046875 18.75 -46.484375 C 16.25 -44.929688 14.0625 -42.757812 12.1875 -39.96875 L 6.6875 -43.984375 C 9.332031 -47.648438 12.320312 -50.429688 15.65625 -52.328125 C 18.988281 -54.234375 23.066406 -55.1875 27.890625 -55.1875 Z M 24.6875 -5.328125 C 27.84375 -5.328125 30.640625 -5.960938 33.078125 -7.234375 C 35.523438 -8.503906 37.582031 -10.269531 39.25 -12.53125 C 40.925781 -14.800781 42.179688 -17.421875 43.015625 -20.390625 L 43.015625 -25.9375 L 27.734375 -25.9375 C 22.367188 -25.9375 18.390625 -25.019531 15.796875 -23.1875 C 13.203125 -21.351562 11.90625 -18.804688 11.90625 -15.546875 C 11.90625 -12.460938 13.019531 -9.988281 15.25 -8.125 C 17.476562 -6.257812 20.625 -5.328125 24.6875 -5.328125 Z M 24.6875 -5.328125 "/></g></g></g><g fill="#000000" fill-opacity="1"><g transform="translate(113.298222, 98.552626)"><g><path d="M 9.84375 22.515625 L 9.84375 -54.328125 L 17.234375 -54.328125 L 17.234375 -42.296875 C 18.398438 -44.984375 19.957031 -47.285156 21.90625 -49.203125 C 23.863281 -51.128906 26.113281 -52.609375 28.65625 -53.640625 C 31.195312 -54.671875 33.894531 -55.1875 36.75 -55.1875 C 40.414062 -55.1875 43.671875 -54.453125 46.515625 -52.984375 C 49.359375 -51.515625 51.757812 -49.492188 53.71875 -46.921875 C 55.675781 -44.347656 57.171875 -41.363281 58.203125 -37.96875 C 59.234375 -34.582031 59.75 -30.972656 59.75 -27.140625 C 59.75 -23.296875 59.234375 -19.675781 58.203125 -16.28125 C 57.171875 -12.894531 55.664062 -9.921875 53.6875 -7.359375 C 51.71875 -4.804688 49.300781 -2.804688 46.4375 -1.359375 C 43.570312 0.0859375 40.3125 0.8125 36.65625 0.8125 C 33.789062 0.8125 31.085938 0.296875 28.546875 -0.734375 C 26.003906 -1.765625 23.773438 -3.234375 21.859375 -5.140625 C 19.941406 -7.046875 18.398438 -9.320312 17.234375 -11.96875 L 17.234375 22.515625 Z M 35.078125 -5.703125 C 38.878906 -5.703125 42.078125 -6.65625 44.671875 -8.5625 C 47.265625 -10.46875 49.222656 -13.039062 50.546875 -16.28125 C 51.867188 -19.53125 52.53125 -23.148438 52.53125 -27.140625 C 52.53125 -31.160156 51.867188 -34.78125 50.546875 -38 C 49.222656 -41.226562 47.265625 -43.785156 44.671875 -45.671875 C 42.078125 -47.554688 38.878906 -48.5 35.078125 -48.5 C 31.304688 -48.5 28.039062 -47.566406 25.28125 -45.703125 C 22.53125 -43.835938 20.398438 -41.289062 18.890625 -38.0625 C 17.390625 -34.832031 16.640625 -31.191406 16.640625 -27.140625 C 16.640625 -23.078125 17.390625 -19.429688 18.890625 -16.203125 C 20.398438 -12.972656 22.53125 -10.414062 25.28125 -8.53125 C 28.039062 -6.644531 31.304688 -5.703125 35.078125 -5.703125 Z M 35.078125 -5.703125 "/></g></g></g><g fill="#000000" fill-opacity="1"><g transform="translate(178.4933, 98.552626)"><g><path d="M 9.5625 -65.6875 L 9.5625 -76.828125 L 17.078125 -76.828125 L 17.078125 -65.6875 Z M 9.734375 0 L 9.734375 -54.328125 L 16.859375 -54.328125 L 16.859375 0 Z M 9.734375 0 "/></g></g></g><g fill="#000000" fill-opacity="1"><g transform="translate(205.082462, 98.552626)"><g><path d="M 26.265625 0.8125 C 21.441406 0.8125 17.769531 -0.5625 15.25 -3.3125 C 12.726562 -6.070312 11.46875 -10.039062 11.46875 -15.21875 L 11.46875 -48.234375 L 2.453125 -48.234375 L 2.453125 -54.328125 L 11.578125 -54.328125 L 11.578125 -70.03125 L 18.65625 -75.3125 L 18.65625 -54.328125 L 33.875 -54.328125 L 33.875 -48.234375 L 18.65625 -48.234375 L 18.65625 -16.359375 C 18.65625 -12.523438 19.40625 -9.765625 20.90625 -8.078125 C 22.40625 -6.390625 24.585938 -5.546875 27.453125 -5.546875 C 28.648438 -5.546875 29.816406 -5.691406 30.953125 -5.984375 C 32.097656 -6.273438 33.054688 -6.5625 33.828125 -6.84375 L 33.9375 -0.265625 C 33.09375 -0.015625 31.984375 0.222656 30.609375 0.453125 C 29.234375 0.691406 27.785156 0.8125 26.265625 0.8125 Z M 26.265625 0.8125 "/></g></g></g><g fill="#000000" fill-opacity="1"><g transform="translate(243.579661, 98.552626)"><g><path d="M 27.890625 -55.1875 C 32.535156 -55.1875 36.46875 -54.296875 39.6875 -52.515625 C 42.914062 -50.742188 45.363281 -48.21875 47.03125 -44.9375 C 48.695312 -41.65625 49.53125 -37.734375 49.53125 -33.171875 L 49.53125 0 L 43.546875 0 L 43.0625 -11.03125 C 41.71875 -8.425781 40.015625 -6.242188 37.953125 -4.484375 C 35.890625 -2.722656 33.613281 -1.398438 31.125 -0.515625 C 28.644531 0.367188 26.046875 0.8125 23.328125 0.8125 C 19.660156 0.8125 16.414062 0.160156 13.59375 -1.140625 C 10.769531 -2.441406 8.554688 -4.332031 6.953125 -6.8125 C 5.359375 -9.300781 4.5625 -12.285156 4.5625 -15.765625 C 4.5625 -19.460938 5.484375 -22.441406 7.328125 -24.703125 C 9.179688 -26.972656 11.8125 -28.632812 15.21875 -29.6875 C 18.632812 -30.738281 22.675781 -31.265625 27.34375 -31.265625 L 43.015625 -31.265625 L 43.015625 -31.921875 C 43.015625 -37.648438 41.863281 -41.898438 39.5625 -44.671875 C 37.257812 -47.441406 33.390625 -48.828125 27.953125 -48.828125 C 24.328125 -48.828125 21.257812 -48.046875 18.75 -46.484375 C 16.25 -44.929688 14.0625 -42.757812 12.1875 -39.96875 L 6.6875 -43.984375 C 9.332031 -47.648438 12.320312 -50.429688 15.65625 -52.328125 C 18.988281 -54.234375 23.066406 -55.1875 27.890625 -55.1875 Z M 24.6875 -5.328125 C 27.84375 -5.328125 30.640625 -5.960938 33.078125 -7.234375 C 35.523438 -8.503906 37.582031 -10.269531 39.25 -12.53125 C 40.925781 -14.800781 42.179688 -17.421875 43.015625 -20.390625 L 43.015625 -25.9375 L 27.734375 -25.9375 C 22.367188 -25.9375 18.390625 -25.019531 15.796875 -23.1875 C 13.203125 -21.351562 11.90625 -18.804688 11.90625 -15.546875 C 11.90625 -12.460938 13.019531 -9.988281 15.25 -8.125 C 17.476562 -6.257812 20.625 -5.328125 24.6875 -5.328125 Z M 24.6875 -5.328125 "/></g></g></g><g fill="#000000" fill-opacity="1"><g transform="translate(301.379802, 98.552626)"><g><path d="M 19.46875 0.8125 C 16.894531 0.8125 14.878906 0.320312 13.421875 -0.65625 C 11.972656 -1.632812 10.953125 -3.046875 10.359375 -4.890625 C 9.765625 -6.742188 9.46875 -8.9375 9.46875 -11.46875 L 9.46875 -76.828125 L 16.640625 -76.828125 L 16.640625 -13.328125 C 16.640625 -11.941406 16.753906 -10.660156 16.984375 -9.484375 C 17.222656 -8.304688 17.769531 -7.375 18.625 -6.6875 C 19.476562 -6 20.8125 -5.65625 22.625 -5.65625 C 23.195312 -5.65625 23.875 -5.707031 24.65625 -5.8125 C 25.4375 -5.925781 26.226562 -6.054688 27.03125 -6.203125 L 27.140625 -0.046875 C 25.941406 0.203125 24.648438 0.40625 23.265625 0.5625 C 21.890625 0.726562 20.625 0.8125 19.46875 0.8125 Z M 19.46875 0.8125 "/></g></g></g></g></g><g transform="matrix(1, 0, 0, 1, 635, 288)"><g clip-path="url(#054b3b8750)"><g fill="#c5a87b" fill-opacity="1"><g transform="translate(0.207787, 270.885456)"><g><path d="M 40.484375 2.96875 C 33.460938 2.96875 27.613281 0.539062 22.9375 -4.3125 C 18.257812 -9.175781 15.921875 -15.023438 15.921875 -21.859375 C 15.921875 -29.054688 18.257812 -35.039062 22.9375 -39.8125 C 27.613281 -44.582031 33.460938 -46.96875 40.484375 -46.96875 C 47.679688 -46.96875 53.570312 -44.582031 58.15625 -39.8125 C 62.75 -35.039062 65.046875 -29.054688 65.046875 -21.859375 C 65.046875 -15.023438 62.75 -9.175781 58.15625 -4.3125 C 53.570312 0.539062 47.679688 2.96875 40.484375 2.96875 Z M 40.484375 2.96875 "/></g></g></g></g></g><g transform="matrix(1, 0, 0, 1, 647, 215)"><g clip-path="url(#14a3ecbfe0)"><g fill="#000000" fill-opacity="1"><g transform="translate(0.803996, 224.028705)"><g><path d="M 82.859375 -29.6875 C 91.316406 -29.6875 97.929688 -33.0625 102.703125 -39.8125 C 107.472656 -46.5625 109.859375 -55.785156 109.859375 -67.484375 C 109.859375 -79.359375 107.609375 -88.894531 103.109375 -96.09375 C 98.609375 -103.289062 91.59375 -106.890625 82.0625 -106.890625 C 72.519531 -106.890625 65.316406 -103.109375 60.453125 -95.546875 C 55.597656 -87.992188 53.171875 -78.640625 53.171875 -67.484375 C 53.171875 -56.328125 55.78125 -47.238281 61 -40.21875 C 66.21875 -33.195312 73.503906 -29.6875 82.859375 -29.6875 Z M 10.53125 45.609375 L 10.53125 -138.203125 L 52.640625 -138.203125 L 52.640625 -121.46875 L 53.4375 -121.46875 C 58.125 -127.757812 63.929688 -132.796875 70.859375 -136.578125 C 77.785156 -140.359375 85.925781 -142.25 95.28125 -142.25 C 107.519531 -142.25 118.046875 -139.050781 126.859375 -132.65625 C 135.679688 -126.269531 142.472656 -117.546875 147.234375 -106.484375 C 152.003906 -95.421875 154.390625 -82.957031 154.390625 -69.09375 C 154.390625 -54.164062 151.867188 -41.210938 146.828125 -30.234375 C 141.796875 -19.253906 134.78125 -10.75 125.78125 -4.71875 C 116.78125 1.300781 106.253906 4.3125 94.203125 4.3125 C 85.378906 4.3125 77.726562 2.648438 71.25 -0.671875 C 64.78125 -4.003906 59.382812 -8.550781 55.0625 -14.3125 L 54.53125 -14.3125 L 54.53125 45.609375 Z M 10.53125 45.609375 "/></g></g></g><g fill="#000000" fill-opacity="1"><g transform="translate(144.391737, 224.028705)"><g><path d="M 15.109375 45.609375 L 15.109375 11.34375 L 30.234375 11.34375 C 36.710938 11.34375 41.34375 10.082031 44.125 7.5625 C 46.914062 5.039062 48.3125 1.441406 48.3125 -3.234375 C 48.3125 -6.296875 47.632812 -10.03125 46.28125 -14.4375 C 44.9375 -18.84375 42.828125 -24.644531 39.953125 -31.84375 L -0.8125 -138.203125 L 45.609375 -138.203125 L 64.234375 -79.359375 C 65.679688 -74.859375 67.078125 -70.132812 68.421875 -65.1875 C 69.773438 -60.238281 70.851562 -56.050781 71.65625 -52.625 C 72.46875 -49.207031 72.875 -47.5 72.875 -47.5 L 73.421875 -47.5 C 73.421875 -47.5 73.78125 -49.207031 74.5 -52.625 C 75.21875 -56.050781 76.207031 -60.238281 77.46875 -65.1875 C 78.726562 -70.132812 80.078125 -74.859375 81.515625 -79.359375 L 99.59375 -138.203125 L 143.59375 -138.203125 L 95.828125 1.890625 C 92.222656 12.679688 88.125 21.269531 83.53125 27.65625 C 78.945312 34.050781 73.503906 38.640625 67.203125 41.421875 C 60.910156 44.210938 53.085938 45.609375 43.734375 45.609375 Z M 15.109375 45.609375 "/></g></g></g><g fill="#000000" fill-opacity="1"><g transform="translate(272.055166, 224.028705)"><g><path d="M 69.375 4.3125 C 49.21875 4.3125 33.15625 -0.046875 21.1875 -8.765625 C 9.21875 -17.492188 2.875 -29.507812 2.15625 -44.8125 L 43.734375 -44.8125 C 44.628906 -37.96875 47.28125 -32.835938 51.6875 -29.421875 C 56.09375 -26.003906 61.894531 -24.296875 69.09375 -24.296875 C 75.757812 -24.296875 81.023438 -25.460938 84.890625 -27.796875 C 88.753906 -30.140625 90.6875 -33.5625 90.6875 -38.0625 C 90.6875 -42.195312 89.019531 -45.296875 85.6875 -47.359375 C 82.363281 -49.429688 78.046875 -50.960938 72.734375 -51.953125 C 67.429688 -52.941406 61.722656 -53.976562 55.609375 -55.0625 C 49.671875 -56.144531 43.726562 -57.445312 37.78125 -58.96875 C 31.84375 -60.5 26.488281 -62.796875 21.71875 -65.859375 C 16.957031 -68.921875 13.132812 -73.015625 10.25 -78.140625 C 7.375 -83.265625 5.9375 -89.878906 5.9375 -97.984375 C 5.9375 -107.703125 8.632812 -115.84375 14.03125 -122.40625 C 19.4375 -128.976562 26.679688 -133.925781 35.765625 -137.25 C 44.847656 -140.582031 54.789062 -142.25 65.59375 -142.25 C 85.207031 -142.25 100.234375 -138.289062 110.671875 -130.375 C 121.109375 -122.457031 126.863281 -111.660156 127.9375 -97.984375 L 87.453125 -97.984375 C 86.734375 -104.273438 84.394531 -108.546875 80.4375 -110.796875 C 76.476562 -113.046875 71.441406 -114.171875 65.328125 -114.171875 C 59.921875 -114.171875 55.375 -113.132812 51.6875 -111.0625 C 48 -109 46.15625 -105.804688 46.15625 -101.484375 C 46.15625 -98.242188 47.679688 -95.8125 50.734375 -94.1875 C 53.796875 -92.570312 57.890625 -91.269531 63.015625 -90.28125 C 68.148438 -89.289062 73.597656 -88.257812 79.359375 -87.1875 C 85.472656 -86.101562 91.632812 -84.75 97.84375 -83.125 C 104.050781 -81.507812 109.765625 -79.171875 114.984375 -76.109375 C 120.203125 -73.054688 124.382812 -68.738281 127.53125 -63.15625 C 130.6875 -57.582031 132.265625 -50.382812 132.265625 -41.5625 C 132.265625 -31.488281 129.519531 -23.03125 124.03125 -16.1875 C 118.539062 -9.351562 111.070312 -4.226562 101.625 -0.8125 C 92.175781 2.601562 81.425781 4.3125 69.375 4.3125 Z M 69.375 4.3125 "/></g></g></g><g fill="#000000" fill-opacity="1"><g transform="translate(392.971001, 224.028705)"><g><path d="M 81.78125 -150.078125 C 102.113281 -150.078125 118.21875 -144.269531 130.09375 -132.65625 C 141.976562 -121.050781 147.921875 -104.546875 147.921875 -83.140625 L 147.921875 -63.703125 L 52.90625 -63.703125 C 53.257812 -52.367188 56.628906 -43.460938 63.015625 -36.984375 C 69.410156 -30.503906 78.273438 -27.265625 89.609375 -27.265625 C 98.972656 -27.265625 107.566406 -28.207031 115.390625 -30.09375 C 123.222656 -31.988281 131.273438 -34.914062 139.546875 -38.875 L 139.546875 -7.828125 C 132.171875 -4.222656 124.523438 -1.566406 116.609375 0.140625 C 108.691406 1.847656 99.0625 2.703125 87.71875 2.703125 C 72.96875 2.703125 59.921875 -0.0390625 48.578125 -5.53125 C 37.242188 -11.019531 28.335938 -19.296875 21.859375 -30.359375 C 15.378906 -41.429688 12.140625 -55.515625 12.140625 -72.609375 C 12.140625 -89.703125 15.0625 -104.003906 20.90625 -115.515625 C 26.757812 -127.035156 34.90625 -135.675781 45.34375 -141.4375 C 55.78125 -147.195312 67.925781 -150.078125 81.78125 -150.078125 Z M 82.0625 -121.46875 C 74.132812 -121.46875 67.648438 -118.945312 62.609375 -113.90625 C 57.578125 -108.863281 54.613281 -101.035156 53.71875 -90.421875 L 110.125 -90.421875 C 109.945312 -99.242188 107.5625 -106.625 102.96875 -112.5625 C 98.382812 -118.5 91.414062 -121.46875 82.0625 -121.46875 Z M 131.734375 -206.765625 L 131.734375 -204.0625 C 129.210938 -201.539062 125.878906 -198.476562 121.734375 -194.875 C 117.597656 -191.28125 113.144531 -187.503906 108.375 -183.546875 C 103.601562 -179.585938 98.921875 -175.851562 94.328125 -172.34375 C 89.742188 -168.832031 85.742188 -165.910156 82.328125 -163.578125 L 55.609375 -163.578125 L 55.609375 -167.078125 C 58.484375 -170.492188 61.851562 -174.492188 65.71875 -179.078125 C 69.59375 -183.671875 73.375 -188.441406 77.0625 -193.390625 C 80.75 -198.347656 83.945312 -202.804688 86.65625 -206.765625 Z M 131.734375 -206.765625 "/></g></g></g></g></g></svg>