<svg xmlns="http://www.w3.org/2000/svg" xmlns:xlink="http://www.w3.org/1999/xlink" width="1440" zoomAndPan="magnify" viewBox="0 0 1080 607.499987" height="810" preserveAspectRatio="xMidYMid meet" version="1.0"><defs><clipPath id="239ffcd8e2"><path d="M 167.925781 187.03125 L 311.4375 187.03125 L 311.4375 429 L 167.925781 429 Z M 167.925781 187.03125 " clip-rule="nonzero"/></clipPath><clipPath id="9532a06134"><path d="M 328 188.09375 L 471.734375 188.09375 L 471.734375 429.828125 L 328 429.828125 Z M 328 188.09375 " clip-rule="nonzero"/></clipPath><clipPath id="cdd7e295a0"><path d="M 167.925781 187.03125 L 311.4375 187.03125 L 311.4375 429 L 167.925781 429 Z M 167.925781 187.03125 " clip-rule="nonzero"/></clipPath></defs><g clip-path="url(#239ffcd8e2)"><path fill="#ffffff" d="M 227.398438 428.988281 C 287.863281 412.722656 323.585938 347.363281 307.328125 281.980469 C 291.066406 216.605469 228.933594 175.703125 167.925781 189.816406 L 227.398438 428.996094 Z M 227.398438 428.988281 " fill-opacity="1" fill-rule="evenodd"/></g><g clip-path="url(#9532a06134)"><path fill="#ffffff" d="M 412.257812 430.074219 C 351.789062 413.816406 316.070312 348.453125 332.332031 283.066406 C 348.589844 217.683594 410.726562 176.796875 471.730469 190.898438 Z M 412.257812 430.074219 " fill-opacity="1" fill-rule="evenodd"/></g><g clip-path="url(#cdd7e295a0)"><path fill="#ffffff" d="M 227.398438 428.988281 C 287.863281 412.722656 323.585938 347.363281 307.328125 281.980469 C 291.066406 216.605469 228.933594 175.703125 167.925781 189.816406 L 227.398438 428.996094 Z M 227.398438 428.988281 " fill-opacity="1" fill-rule="evenodd"/></g><path fill="#ffffff" d="M 559.0625 418.429688 C 556.128906 418.429688 553.523438 417.886719 551.253906 416.800781 C 548.988281 415.71875 547.074219 414.21875 545.503906 412.304688 C 543.941406 410.386719 542.753906 408.167969 541.945312 405.644531 C 541.128906 403.113281 540.726562 400.410156 540.726562 397.527344 C 540.726562 394.867188 541.105469 392.28125 541.863281 389.765625 C 542.617188 387.253906 543.75 385 545.257812 383.007812 C 546.773438 381.011719 548.675781 379.421875 550.972656 378.242188 C 553.265625 377.058594 555.9375 376.464844 558.980469 376.464844 C 562.695312 376.464844 565.976562 377.417969 568.828125 379.320312 C 571.6875 381.21875 573.863281 384 575.363281 387.667969 L 570.222656 389.660156 C 569.269531 387.109375 567.808594 385.09375 565.84375 383.617188 C 563.875 382.136719 561.585938 381.394531 558.980469 381.394531 C 556.78125 381.394531 554.875 381.84375 553.265625 382.738281 C 551.664062 383.640625 550.34375 384.847656 549.296875 386.371094 C 548.25 387.886719 547.472656 389.609375 546.957031 391.535156 C 546.441406 393.460938 546.183594 395.460938 546.183594 397.527344 C 546.183594 399.621094 546.441406 401.625 546.957031 403.546875 C 547.472656 405.460938 548.25 407.171875 549.296875 408.675781 C 550.34375 410.183594 551.675781 411.375 553.289062 412.246094 C 554.90625 413.113281 556.816406 413.546875 559.015625 413.546875 C 561.675781 413.546875 563.972656 412.816406 565.902344 411.34375 C 567.828125 409.878906 569.203125 407.878906 570.023438 405.351562 L 574.953125 407.222656 C 573.703125 410.761719 571.675781 413.511719 568.875 415.480469 C 566.078125 417.445312 562.808594 418.429688 559.0625 418.429688 Z M 559.0625 418.429688 " fill-opacity="1" fill-rule="nonzero"/><path fill="#ffffff" d="M 598.742188 376.464844 C 602.222656 376.464844 605.171875 377.132812 607.582031 378.464844 C 610 379.796875 611.835938 381.6875 613.085938 384.144531 C 614.332031 386.605469 614.960938 389.542969 614.960938 392.960938 L 614.960938 417.820312 L 610.476562 417.820312 L 610.113281 409.554688 C 609.105469 411.507812 607.828125 413.144531 606.285156 414.460938 C 604.738281 415.78125 603.03125 416.773438 601.167969 417.433594 C 599.308594 418.097656 597.363281 418.429688 595.324219 418.429688 C 592.574219 418.429688 590.144531 417.941406 588.027344 416.964844 C 585.914062 415.992188 584.253906 414.574219 583.054688 412.714844 C 581.859375 410.851562 581.261719 408.613281 581.261719 406.007812 C 581.261719 403.238281 581.953125 401.003906 583.332031 399.308594 C 584.722656 397.609375 586.695312 396.363281 589.246094 395.574219 C 591.804688 394.785156 594.835938 394.390625 598.332031 394.390625 L 610.078125 394.390625 L 610.078125 393.898438 C 610.078125 389.609375 609.214844 386.421875 607.488281 384.34375 C 605.761719 382.269531 602.863281 381.230469 598.789062 381.230469 C 596.074219 381.230469 593.773438 381.816406 591.894531 382.984375 C 590.019531 384.152344 588.378906 385.777344 586.976562 387.867188 L 582.855469 384.859375 C 584.835938 382.113281 587.074219 380.03125 589.574219 378.605469 C 592.070312 377.179688 595.128906 376.464844 598.742188 376.464844 Z M 596.34375 413.828125 C 598.707031 413.828125 600.804688 413.355469 602.628906 412.398438 C 604.464844 411.449219 606.003906 410.125 607.253906 408.429688 C 608.511719 406.730469 609.449219 404.765625 610.078125 402.539062 L 610.078125 398.382812 L 598.625 398.382812 C 594.605469 398.382812 591.625 399.070312 589.679688 400.445312 C 587.738281 401.820312 586.765625 403.730469 586.765625 406.171875 C 586.765625 408.484375 587.597656 410.335938 589.269531 411.730469 C 590.9375 413.132812 593.296875 413.828125 596.34375 413.828125 Z M 596.34375 413.828125 " fill-opacity="1" fill-rule="nonzero"/><path fill="#ffffff" d="M 628.535156 434.695312 L 628.535156 377.109375 L 634.070312 377.109375 L 634.070312 386.125 C 634.945312 384.109375 636.113281 382.386719 637.574219 380.949219 C 639.039062 379.503906 640.726562 378.394531 642.632812 377.625 C 644.535156 376.851562 646.558594 376.464844 648.695312 376.464844 C 651.441406 376.464844 653.882812 377.015625 656.015625 378.113281 C 658.144531 379.214844 659.941406 380.730469 661.414062 382.65625 C 662.878906 384.585938 664 386.824219 664.773438 389.367188 C 665.546875 391.90625 665.933594 394.609375 665.933594 397.480469 C 665.933594 400.363281 665.546875 403.074219 664.773438 405.621094 C 664 408.15625 662.871094 410.386719 661.390625 412.304688 C 659.914062 414.21875 658.101562 415.71875 655.957031 416.800781 C 653.808594 417.886719 651.367188 418.429688 648.625 418.429688 C 646.476562 418.429688 644.453125 418.042969 642.550781 417.269531 C 640.644531 416.496094 638.972656 415.398438 637.539062 413.96875 C 636.101562 412.539062 634.945312 410.835938 634.070312 408.851562 L 634.070312 434.695312 Z M 647.445312 413.546875 C 650.292969 413.546875 652.691406 412.832031 654.632812 411.402344 C 656.578125 409.976562 658.042969 408.050781 659.035156 405.621094 C 660.023438 403.183594 660.523438 400.472656 660.523438 397.480469 C 660.523438 394.46875 660.023438 391.757812 659.035156 389.34375 C 658.042969 386.925781 656.578125 385.007812 654.632812 383.59375 C 652.691406 382.183594 650.292969 381.476562 647.445312 381.476562 C 644.617188 381.476562 642.167969 382.175781 640.101562 383.570312 C 638.042969 384.96875 636.441406 386.878906 635.3125 389.296875 C 634.1875 391.71875 633.628906 394.445312 633.628906 397.480469 C 633.628906 400.527344 634.1875 403.261719 635.3125 405.679688 C 636.441406 408.097656 638.042969 410.015625 640.101562 411.425781 C 642.167969 412.839844 644.617188 413.546875 647.445312 413.546875 Z M 647.445312 413.546875 " fill-opacity="1" fill-rule="nonzero"/><path fill="#ffffff" d="M 677.179688 368.59375 L 677.179688 360.246094 L 682.8125 360.246094 L 682.8125 368.59375 Z M 677.308594 417.820312 L 677.308594 377.109375 L 682.648438 377.109375 L 682.648438 417.820312 Z M 677.308594 417.820312 " fill-opacity="1" fill-rule="nonzero"/><path fill="#ffffff" d="M 709.621094 418.429688 C 706.007812 418.429688 703.253906 417.398438 701.367188 415.339844 C 699.476562 413.273438 698.53125 410.296875 698.53125 406.414062 L 698.53125 381.675781 L 691.777344 381.675781 L 691.777344 377.109375 L 698.613281 377.109375 L 698.613281 365.339844 L 703.917969 361.382812 L 703.917969 377.109375 L 715.324219 377.109375 L 715.324219 381.675781 L 703.917969 381.675781 L 703.917969 405.5625 C 703.917969 408.4375 704.480469 410.503906 705.605469 411.765625 C 706.730469 413.03125 708.363281 413.664062 710.511719 413.664062 C 711.40625 413.664062 712.28125 413.554688 713.132812 413.335938 C 713.992188 413.121094 714.710938 412.902344 715.289062 412.691406 L 715.371094 417.621094 C 714.738281 417.808594 713.90625 417.988281 712.875 418.160156 C 711.847656 418.339844 710.761719 418.429688 709.621094 418.429688 Z M 709.621094 418.429688 " fill-opacity="1" fill-rule="nonzero"/><path fill="#ffffff" d="M 739.6875 376.464844 C 743.167969 376.464844 746.117188 377.132812 748.527344 378.464844 C 750.945312 379.796875 752.78125 381.6875 754.03125 384.144531 C 755.277344 386.605469 755.90625 389.542969 755.90625 392.960938 L 755.90625 417.820312 L 751.421875 417.820312 L 751.058594 409.554688 C 750.050781 411.507812 748.773438 413.144531 747.230469 414.460938 C 745.683594 415.78125 743.976562 416.773438 742.113281 417.433594 C 740.253906 418.097656 738.308594 418.429688 736.269531 418.429688 C 733.519531 418.429688 731.089844 417.941406 728.972656 416.964844 C 726.859375 415.992188 725.199219 414.574219 724 412.714844 C 722.804688 410.851562 722.207031 408.613281 722.207031 406.007812 C 722.207031 403.238281 722.898438 401.003906 724.277344 399.308594 C 725.667969 397.609375 727.640625 396.363281 730.191406 395.574219 C 732.75 394.785156 735.78125 394.390625 739.277344 394.390625 L 751.023438 394.390625 L 751.023438 393.898438 C 751.023438 389.609375 750.160156 386.421875 748.433594 384.34375 C 746.707031 382.269531 743.808594 381.230469 739.734375 381.230469 C 737.019531 381.230469 734.71875 381.816406 732.839844 382.984375 C 730.964844 384.152344 729.324219 385.777344 727.921875 387.867188 L 723.800781 384.859375 C 725.78125 382.113281 728.019531 380.03125 730.519531 378.605469 C 733.015625 377.179688 736.074219 376.464844 739.6875 376.464844 Z M 737.289062 413.828125 C 739.652344 413.828125 741.75 413.355469 743.574219 412.398438 C 745.410156 411.449219 746.949219 410.125 748.199219 408.429688 C 749.457031 406.730469 750.394531 404.765625 751.023438 402.539062 L 751.023438 398.382812 L 739.570312 398.382812 C 735.550781 398.382812 732.570312 399.070312 730.625 400.445312 C 728.683594 401.820312 727.710938 403.730469 727.710938 406.171875 C 727.710938 408.484375 728.542969 410.335938 730.214844 411.730469 C 731.882812 413.132812 734.242188 413.828125 737.289062 413.828125 Z M 737.289062 413.828125 " fill-opacity="1" fill-rule="nonzero"/><path fill="#ffffff" d="M 776.691406 418.429688 C 774.761719 418.429688 773.253906 418.0625 772.160156 417.328125 C 771.074219 416.597656 770.308594 415.539062 769.863281 414.15625 C 769.421875 412.769531 769.199219 411.121094 769.199219 409.226562 L 769.199219 360.246094 L 774.570312 360.246094 L 774.570312 407.832031 C 774.570312 408.871094 774.65625 409.832031 774.828125 410.714844 C 775.007812 411.597656 775.417969 412.292969 776.058594 412.808594 C 776.699219 413.324219 777.699219 413.582031 779.058594 413.582031 C 779.484375 413.582031 779.992188 413.542969 780.578125 413.464844 C 781.164062 413.378906 781.753906 413.285156 782.359375 413.171875 L 782.441406 417.785156 C 781.542969 417.972656 780.574219 418.125 779.535156 418.242188 C 778.507812 418.363281 777.558594 418.429688 776.691406 418.429688 Z M 776.691406 418.429688 " fill-opacity="1" fill-rule="nonzero"/><path fill="#c5a87b" d="M 506.796875 421.042969 C 501.53125 421.042969 497.152344 419.222656 493.648438 415.585938 C 490.140625 411.941406 488.390625 407.5625 488.390625 402.4375 C 488.390625 397.046875 490.140625 392.5625 493.648438 388.984375 C 497.152344 385.410156 501.53125 383.621094 506.796875 383.621094 C 512.1875 383.621094 516.601562 385.410156 520.039062 388.984375 C 523.480469 392.5625 525.203125 397.046875 525.203125 402.4375 C 525.203125 407.5625 523.480469 411.941406 520.039062 415.585938 C 516.601562 419.222656 512.1875 421.042969 506.796875 421.042969 Z M 506.796875 421.042969 " fill-opacity="1" fill-rule="nonzero"/><path fill="#ffffff" d="M 547.992188 306.753906 C 554.328125 306.753906 559.285156 304.222656 562.863281 299.164062 C 566.4375 294.109375 568.222656 287.195312 568.222656 278.429688 C 568.222656 269.53125 566.539062 262.382812 563.164062 256.988281 C 559.792969 251.597656 554.535156 248.898438 547.394531 248.898438 C 540.242188 248.898438 534.84375 251.730469 531.199219 257.398438 C 527.5625 263.0625 525.742188 270.070312 525.742188 278.429688 C 525.742188 286.789062 527.699219 293.601562 531.609375 298.863281 C 535.519531 304.125 540.980469 306.753906 547.992188 306.753906 Z M 493.789062 363.179688 L 493.789062 225.433594 L 525.34375 225.433594 L 525.34375 237.972656 L 525.941406 237.972656 C 529.457031 233.261719 533.804688 229.484375 539 226.652344 C 544.1875 223.816406 550.289062 222.402344 557.300781 222.402344 C 566.472656 222.402344 574.359375 224.796875 580.964844 229.589844 C 587.574219 234.375 592.664062 240.914062 596.234375 249.203125 C 599.808594 257.492188 601.59375 266.835938 601.59375 277.222656 C 601.59375 288.410156 599.703125 298.117188 595.929688 306.34375 C 592.15625 314.570312 586.898438 320.945312 580.15625 325.464844 C 573.410156 329.976562 565.523438 332.234375 556.492188 332.234375 C 549.878906 332.234375 544.144531 330.984375 539.292969 328.496094 C 534.445312 326 530.398438 322.59375 527.160156 318.273438 L 526.761719 318.273438 L 526.761719 363.179688 Z M 493.789062 363.179688 " fill-opacity="1" fill-rule="nonzero"/><path fill="#ffffff" d="M 604.824219 363.179688 L 604.824219 337.5 L 616.15625 337.5 C 621.011719 337.5 624.480469 336.554688 626.566406 334.667969 C 628.65625 332.777344 629.703125 330.082031 629.703125 326.578125 C 629.703125 324.28125 629.195312 321.484375 628.183594 318.179688 C 627.175781 314.878906 625.59375 310.53125 623.441406 305.136719 L 592.890625 225.433594 L 627.679688 225.433594 L 641.636719 269.53125 C 642.71875 272.902344 643.765625 276.445312 644.773438 280.148438 C 645.785156 283.859375 646.59375 286.996094 647.199219 289.5625 C 647.804688 292.125 648.109375 293.40625 648.109375 293.40625 L 648.519531 293.40625 C 648.519531 293.40625 648.789062 292.125 649.328125 289.5625 C 649.867188 286.996094 650.609375 283.859375 651.554688 280.148438 C 652.496094 276.445312 653.507812 272.902344 654.585938 269.53125 L 668.132812 225.433594 L 701.105469 225.433594 L 665.3125 330.417969 C 662.609375 338.503906 659.539062 344.941406 656.097656 349.726562 C 652.660156 354.519531 648.582031 357.957031 643.859375 360.042969 C 639.144531 362.132812 633.28125 363.179688 626.273438 363.179688 Z M 604.824219 363.179688 " fill-opacity="1" fill-rule="nonzero"/><path fill="#ffffff" d="M 741.15625 332.234375 C 726.050781 332.234375 714.015625 328.964844 705.046875 322.433594 C 696.078125 315.890625 691.324219 306.886719 690.785156 295.417969 L 721.941406 295.417969 C 722.613281 300.546875 724.601562 304.394531 727.902344 306.953125 C 731.203125 309.515625 735.550781 310.792969 740.945312 310.792969 C 745.941406 310.792969 749.886719 309.921875 752.785156 308.171875 C 755.679688 306.414062 757.128906 303.847656 757.128906 300.476562 C 757.128906 297.378906 755.878906 295.054688 753.382812 293.511719 C 750.890625 291.957031 747.65625 290.8125 743.675781 290.066406 C 739.699219 289.328125 735.421875 288.550781 730.839844 287.738281 C 726.390625 286.925781 721.9375 285.953125 717.480469 284.808594 C 713.03125 283.664062 709.019531 281.941406 705.445312 279.648438 C 701.875 277.351562 699.011719 274.285156 696.851562 270.445312 C 694.695312 266.601562 693.617188 261.648438 693.617188 255.574219 C 693.617188 248.289062 695.636719 242.1875 699.683594 237.273438 C 703.734375 232.347656 709.160156 228.640625 715.972656 226.148438 C 722.777344 223.652344 730.226562 222.402344 738.324219 222.402344 C 753.019531 222.402344 764.28125 225.371094 772.105469 231.300781 C 779.925781 237.234375 784.238281 245.324219 785.042969 255.574219 L 754.703125 255.574219 C 754.164062 250.859375 752.414062 247.65625 749.445312 245.972656 C 746.480469 244.285156 742.707031 243.441406 738.125 243.441406 C 734.074219 243.441406 730.664062 244.222656 727.902344 245.773438 C 725.140625 247.316406 723.757812 249.710938 723.757812 252.949219 C 723.757812 255.378906 724.898438 257.199219 727.1875 258.417969 C 729.484375 259.628906 732.550781 260.605469 736.390625 261.34375 C 740.238281 262.089844 744.320312 262.863281 748.640625 263.664062 C 753.21875 264.476562 757.835938 265.492188 762.492188 266.707031 C 767.140625 267.921875 771.425781 269.671875 775.335938 271.964844 C 779.246094 274.253906 782.378906 277.488281 784.738281 281.671875 C 787.105469 285.851562 788.285156 291.246094 788.285156 297.855469 C 788.285156 305.402344 786.226562 311.742188 782.117188 316.871094 C 778 321.992188 772.402344 325.832031 765.324219 328.390625 C 758.242188 330.949219 750.1875 332.234375 741.15625 332.234375 Z M 741.15625 332.234375 " fill-opacity="1" fill-rule="nonzero"/><path fill="#ffffff" d="M 841.066406 216.535156 C 856.304688 216.535156 868.371094 220.886719 877.269531 229.589844 C 886.175781 238.289062 890.632812 250.65625 890.632812 266.695312 L 890.632812 281.261719 L 819.429688 281.261719 C 819.691406 289.757812 822.21875 296.433594 827.003906 301.285156 C 831.796875 306.140625 838.4375 308.566406 846.933594 308.566406 C 853.949219 308.566406 860.390625 307.863281 866.253906 306.449219 C 872.121094 305.027344 878.15625 302.835938 884.355469 299.867188 L 884.355469 323.132812 C 878.828125 325.835938 873.097656 327.828125 867.164062 329.105469 C 861.230469 330.386719 854.015625 331.027344 845.515625 331.027344 C 834.460938 331.027344 824.683594 328.972656 816.183594 324.855469 C 807.691406 320.742188 801.015625 314.539062 796.160156 306.25 C 791.304688 297.953125 788.878906 287.398438 788.878906 274.589844 C 788.878906 261.777344 791.070312 251.0625 795.449219 242.433594 C 799.832031 233.800781 805.9375 227.328125 813.761719 223.011719 C 821.582031 218.695312 830.683594 216.535156 841.066406 216.535156 Z M 841.277344 237.972656 C 835.335938 237.972656 830.476562 239.863281 826.699219 243.640625 C 822.929688 247.421875 820.707031 253.285156 820.035156 261.238281 L 862.308594 261.238281 C 862.171875 254.628906 860.386719 249.097656 856.945312 244.648438 C 853.507812 240.199219 848.285156 237.972656 841.277344 237.972656 Z M 878.5 174.054688 L 878.5 176.078125 C 876.609375 177.972656 874.113281 180.265625 871.007812 182.964844 C 867.90625 185.65625 864.570312 188.488281 860.996094 191.453125 C 857.417969 194.421875 853.910156 197.21875 850.46875 199.847656 C 847.03125 202.480469 844.035156 204.671875 841.476562 206.417969 L 821.453125 206.417969 L 821.453125 203.796875 C 823.609375 201.238281 826.132812 198.238281 829.03125 194.800781 C 831.933594 191.359375 834.765625 187.785156 837.53125 184.078125 C 840.292969 180.363281 842.6875 177.023438 844.71875 174.054688 Z M 878.5 174.054688 " fill-opacity="1" fill-rule="nonzero"/></svg>